PathFileType	4	(X/Y/Z)	C:\Users\u0145647\OneDrive - KU Leuven\KU Leuven\c3d2osim\CP16\T0\Data\Processed\ViconC3D\CP16_T0_08_gapFilled.trc
DataRate	CameraRate	NumFrames	NumMarkers	Units	OrigDataRate	OrigDataStartFrame	OrigNumFrames
100.000000	100.000000	9	47	mm	100.000000	183	729
Frame#	Time	C7			T10			CLAV			STRN			LSHO			RSHO			RBAK			LASI			RASI			LPSI			RPSI			LLAT			RLAT			LF1			LF2			LF3			LTHI			LKNE			LMEK			RF1			RF2			RF3			RTHI			RKNE			RMEK			LT1			LT2			LT3			LTIB			LMM			LANK			RT1			RT2			RT3			RTIB			RANK			RMM			LHEE			LSTL			LLCA			LTOE			LCM5			RHEE			RSTL			RLCA			RTOE			RCM5
		X1	Y1	Z1	X2	Y2	Z2	X3	Y3	Z3	X4	Y4	Z4	X5	Y5	Z5	X6	Y6	Z6	X7	Y7	Z7	X8	Y8	Z8	X9	Y9	Z9	X10	Y10	Z10	X11	Y11	Z11	X12	Y12	Z12	X13	Y13	Z13	X14	Y14	Z14	X15	Y15	Z15	X16	Y16	Z16	X17	Y17	Z17	X18	Y18	Z18	X19	Y19	Z19	X20	Y20	Z20	X21	Y21	Z21	X22	Y22	Z22	X23	Y23	Z23	X24	Y24	Z24	X25	Y25	Z25	X26	Y26	Z26	X27	Y27	Z27	X28	Y28	Z28	X29	Y29	Z29	X30	Y30	Z30	X31	Y31	Z31	X32	Y32	Z32	X33	Y33	Z33	X34	Y34	Z34	X35	Y35	Z35	X36	Y36	Z36	X37	Y37	Z37	X38	Y38	Z38	X39	Y39	Z39	X40	Y40	Z40	X41	Y41	Z41	X42	Y42	Z42	X43	Y43	Z43	X44	Y44	Z44	X45	Y45	Z45	X46	Y46	Z46	X47	Y47	Z47

183	1.82	-1364	1445	-226.54	-1425.5	1162.5	-230.87	-1231.1	1357.6	-219.64	-1206.6	1187.8	-225.05	-1298.1	1350.2	-404.59	-1284.9	1386.3	-36.463	-1392.5	1366.2	-87.61	-1245.5	922.98	-381.55	-1218.2	922.16	-132.77	-1398.4	933.66	-287.59	-1389.8	929.87	-210.51	-1320.1	998.2	-389.44	-1284.3	985.97	-106.54	-1200.2	701.49	-439.99	-1209.1	748.57	-436.78	-1243.3	719.96	-433.83	-1144.3	626.61	-484.21	-1084.2	510.24	-435.01	-1077.5	498.03	-318.21	-1285.9	690.28	-76.385	-1307	727.21	-77.819	-1267.1	730.61	-81.797	-1296.1	601.56	-32.257	-1318.2	447.05	-86.972	-1320.2	444.15	-205.69	-1094.8	429.55	-453.05	-1056.6	417.54	-443.02	-1082.7	381.88	-456.35	-1063.6	308.64	-507.66	-1101.6	97.535	-396.45	-1118.4	107.88	-487.16	-1379.6	316.47	-75.626	-1377.1	353.77	-70.97	-1346	334.42	-81.715	-1394.9	223.07	-39.313	-1491.3	76.743	-83.359	-1482.8	76.608	-176.75	-1169.3	77.341	-440.5	-1083.4	69.534	-407.44	-1104.1	78.471	-498.18	-995.99	91.009	-494.18	-1021.1	73.439	-536.02	-1554.1	77.111	-123.26	-1479.3	40.577	-172.39	-1478.4	48.366	-75.763	-1378.1	39.051	-96.521	-1410.1	27.862	-53.35
184	1.83	-1353.9	1443.4	-232.41	-1415.7	1160.9	-233.98	-1221.2	1356	-223.68	-1196.6	1186.5	-227.88	-1286.3	1347.6	-409.22	-1276.9	1386.5	-41.359	-1384.3	1365.6	-93.144	-1234.8	921.54	-383.01	-1208.4	920.95	-134.07	-1388.2	931.49	-289.2	-1379.6	927.87	-212.47	-1310.1	995.93	-391.13	-1274.7	985.25	-108.33	-1189.4	698.5	-440.34	-1198.1	745.33	-436.61	-1233.4	717.02	-434.87	-1135.2	623.46	-484.3	-1077	505.39	-433.72	-1075.8	489.46	-317.52	-1275.2	688.42	-77.96	-1296.5	725.38	-79.497	-1256.5	728.72	-83.526	-1284.9	599.72	-33.877	-1307.8	445.34	-88.283	-1309.7	442.58	-207.12	-1085.6	425.41	-454.04	-1047.8	413.89	-442.91	-1072.4	378.33	-458.19	-1050.6	307.55	-511.21	-1084.9	91.891	-407.13	-1098.3	104.28	-497.89	-1371.7	316.01	-76.967	-1368.3	353.07	-72.404	-1337.5	334.23	-82.935	-1389	223.12	-40.788	-1488.9	78.292	-84.863	-1481.2	78.705	-177.61	-1150.5	71.326	-454.16	-1064.5	64.979	-418.37	-1082.8	75.51	-509.11	-974.85	89.298	-500.81	-998.4	73.236	-544.09	-1552.9	81.911	-123.54	-1478.2	42.572	-173.13	-1477.4	50.469	-76.524	-1377.5	39.331	-96.949	-1409.6	28.69	-53.899
185	1.84	-1344	1441.7	-238.56	-1405.9	1159.1	-238.03	-1211.2	1354.5	-228.01	-1186.7	1184.6	-231.26	-1275	1345.1	-414.16	-1268.8	1386.7	-46.525	-1375.8	1364.6	-98.951	-1223.9	919.48	-385.24	-1198.2	919.39	-135.39	-1377.6	929.23	-291.39	-1369.2	925.67	-214.51	-1299.5	993.31	-393.13	-1264.7	984.39	-110.39	-1178.3	695.06	-439.89	-1186.4	741.8	-436.09	-1222.6	714.32	-435.66	-1123.9	619.53	-482.66	-1068.4	501.57	-432.28	-1074.5	480.86	-317.31	-1264.6	686.42	-79.617	-1286.5	723.5	-80.97	-1246.1	726.83	-85.148	-1274.1	597.67	-35.18	-1297.8	443.6	-89.534	-1299.6	440.94	-208.43	-1076.1	422.11	-455.14	-1039.4	410.45	-441.32	-1062.7	375.23	-459.68	-1039.6	306.03	-514.35	-1073	87.129	-416.15	-1081.7	101.42	-506.94	-1363.9	315.45	-78.121	-1359.3	352.65	-73.255	-1329.9	331.94	-84.621	-1383.5	223.6	-41.362	-1487.5	81.102	-85.257	-1479.3	80.479	-178.33	-1135.7	66.746	-467.17	-1052.9	58.759	-426.78	-1065.7	72.965	-518.35	-958.42	86.52	-504.29	-979.54	71.6	-548.94	-1551.1	85.56	-124.26	-1477.5	44.464	-173.58	-1476.5	52.822	-76.914	-1377	39.619	-97.401	-1409.2	29.628	-54.36
186	1.85	-1334.1	1439.9	-245.03	-1395.8	1157.2	-242.43	-1201.2	1352.9	-232.71	-1176.5	1183	-234.77	-1263.9	1342.6	-419.29	-1260.8	1386.6	-52.161	-1367.2	1363.3	-105.3	-1212.7	917.51	-386.04	-1188	917.69	-137.05	-1366.8	926.9	-293.6	-1358.6	923.52	-216.66	-1288.4	990.39	-395.4	-1254.4	983.14	-112.64	-1166.7	691.48	-438.64	-1174.1	738.3	-435.37	-1211	711.06	-436.02	-1110.8	616.17	-480.5	-1059	497.66	-430.52	-1072.2	473.97	-316.92	-1254.3	684.31	-81.18	-1275.8	721.36	-82.838	-1235.8	724.77	-86.768	-1264.4	595.65	-36.561	-1288	441.59	-90.658	-1290	438.86	-209.7	-1067.1	418.65	-455.5	-1031	406.4	-440.25	-1053.5	372	-460.89	-1028.7	304	-516.08	-1065.5	83.003	-423.41	-1069.1	98.805	-513.86	-1356.5	314.84	-78.963	-1351.1	351.84	-74.249	-1321.9	330.94	-85.176	-1377.8	223.24	-42.469	-1485.8	83.942	-85.566	-1477.9	82.885	-178.57	-1125.9	64.091	-477.82	-1043.3	56.133	-433.1	-1052.2	70.437	-525.25	-945.99	81.218	-505.1	-965.06	68.64	-551.23	-1549.1	89.155	-124.71	-1476.7	46.535	-173.97	-1475.5	55.357	-77.207	-1376.3	39.954	-97.849	-1408.6	30.681	-54.729
187	1.86	-1324.1	1437.8	-251.84	-1385.3	1155	-247.05	-1191.1	1351.3	-237.9	-1166.1	1181.5	-238.59	-1253	1339.8	-424.82	-1252.8	1386.2	-58.019	-1358.6	1361.7	-111.94	-1201.2	915.09	-387.93	-1177.8	915.83	-138.82	-1355.8	924.57	-296.34	-1348	921.43	-219.05	-1276.8	987.37	-397.87	-1244.2	981.63	-115.04	-1154.2	688.86	-437.84	-1161.6	735.14	-434.81	-1199.8	707.49	-435.87	-1097.2	613.79	-479	-1049.3	493.53	-428.99	-1069	468.33	-316.73	-1244.3	682.25	-82.735	-1265.8	719.25	-84.496	-1225.8	722.66	-88.529	-1255.1	593.75	-38.007	-1278.2	439.7	-91.471	-1280.4	436.79	-210.68	-1058.2	414.91	-455.59	-1023	402.09	-438.94	-1044.8	368.33	-461.18	-1017.9	301.11	-516.52	-1061.5	78.135	-428.43	-1060.1	95.397	-518.69	-1349.3	314.28	-79.631	-1342.8	351.13	-75.001	-1314.1	329.84	-85.823	-1373	223.37	-43.041	-1483.6	86.531	-85.905	-1476.4	85.377	-178.82	-1118.9	61.019	-486.28	-1041	49.072	-438.93	-1042.9	67.29	-529.46	-938.12	74.762	-504.02	-954.89	63.54	-551.4	-1546.9	93.017	-125.03	-1475.7	49.011	-174.2	-1474.3	58.104	-77.35	-1375.5	40.253	-98.176	-1408	31.821	-55.119
188	1.87	-1314.2	1435.7	-258.75	-1374.8	1153	-251.88	-1181	1349.8	-243.46	-1155.4	1180	-242.57	-1242.1	1336.7	-430.79	-1244.8	1385.8	-64.071	-1349.9	1360	-118.82	-1189.2	912.07	-390.35	-1167.6	913.9	-140.43	-1344.6	922.47	-298.87	-1337.1	919.32	-221.53	-1264.8	984.32	-400.46	-1234	980.33	-117.57	-1141.7	686.15	-437.86	-1149.3	732.72	-435.07	-1186.8	705.21	-437.26	-1083.5	611.98	-477.78	-1040.4	488.98	-427.81	-1064.8	463.49	-316.81	-1234.6	680.26	-84.456	-1256.2	717.15	-86.173	-1216	720.52	-90.272	-1245.5	591.63	-39.617	-1268.3	437.55	-92.332	-1270.5	434.63	-211.62	-1049.5	410.53	-455.37	-1015.4	396.87	-437.21	-1036.4	363.79	-461.03	-1007.1	296.42	-514.66	-1059.6	72.975	-431.22	-1054.5	90.822	-521.29	-1341.8	313.6	-80.286	-1334.6	350.17	-75.765	-1306.5	328.14	-87	-1367.9	223.53	-43.506	-1481.4	89.553	-85.972	-1474.6	87.961	-179	-1114.7	57.978	-491.1	-1039.5	44.008	-440.78	-1037.6	62.348	-531.34	-933.63	66.555	-501.73	-949.14	56.746	-550.34	-1545	97.762	-125.01	-1475.4	51.928	-174.63	-1473	61.238	-77.266	-1374.5	40.565	-98.595	-1407.1	33.07	-55.363
189	1.88	-1304.1	1433.5	-265.94	-1363.9	1150.8	-256.85	-1170.8	1348.2	-249.1	-1144.5	1178.7	-246.67	-1231.5	1333.9	-436.59	-1236.7	1385.2	-70.458	-1341.1	1358	-125.86	-1177	909.37	-391.75	-1157.2	911.81	-142.15	-1333	920.18	-301.95	-1326.3	917.3	-224.3	-1252.4	981.13	-403.2	-1223.6	978.92	-120.14	-1129.8	683.91	-438.62	-1137.4	730.29	-436.05	-1174.9	703.03	-439.39	-1070.5	610.06	-476.96	-1032.5	483.9	-427.41	-1060	458.76	-316.82	-1224.8	678.26	-86.299	-1246.1	715.18	-88.388	-1206.2	718.48	-92.185	-1236.6	590.23	-40.773	-1258.3	435.55	-92.89	-1260.6	432.38	-212.46	-1041.3	405.04	-455.1	-1008.5	390.53	-435.3	-1029.4	358.13	-458.88	-999.17	290.15	-512.11	-1059	67.328	-431.65	-1051.9	85.134	-521.37	-1334.1	312.82	-80.884	-1326.5	349.6	-76.823	-1298.2	326.96	-87.494	-1362.1	223.45	-44.042	-1479.2	92.884	-86.339	-1472.7	90.882	-179.21	-1113.3	53.937	-491.58	-1038.7	38.085	-440.79	-1035.4	56.231	-531.05	-932.16	57.729	-500.09	-947	48.601	-548.78	-1542.9	103.24	-124.92	-1474.6	55.298	-174.75	-1471.4	64.383	-77.544	-1373.8	40.955	-98.883	-1406.4	34.585	-55.65
190	1.89	-1294	1431.2	-273.28	-1352.7	1148.4	-261.98	-1160.4	1346.4	-255.07	-1133.6	1177.1	-250.92	-1220.6	1330.8	-442.75	-1228.5	1384.9	-76.891	-1332.2	1356.3	-133	-1164.5	906.62	-394	-1146.8	909.95	-144.1	-1321.2	917.92	-305.35	-1314.9	915.1	-227.61	-1239.7	978.07	-405.94	-1213.1	977.74	-122.88	-1119.4	680.8	-439.98	-1126.4	727.32	-437.65	-1163.9	700.69	-441.68	-1059.3	606.88	-477.1	-1026	478.11	-427.03	-1054.8	453.98	-316.95	-1214.9	676.23	-88.187	-1236.5	713.05	-90.434	-1196.3	716.41	-94.096	-1226.6	587.94	-42.242	-1247.7	433.33	-93.497	-1250.1	430.05	-213.42	-1034.9	398.51	-454.1	-1002.8	383.52	-433.47	-1023.6	351.56	-458.08	-994.03	282.33	-509.79	-1059.1	60.507	-429.93	-1051.9	78.266	-519.34	-1326.1	312.35	-81.403	-1317.2	348.44	-76.984	-1289.8	325.35	-88.152	-1355.9	223.66	-44.581	-1476.6	96.375	-86.602	-1470.3	94.184	-179.55	-1113.3	47.451	-488.76	-1038.9	31.006	-438.48	-1035.8	49.139	-528.74	-931.95	50.022	-498.11	-947.42	39.417	-546.34	-1540	108.56	-125.31	-1472.8	58.161	-175.32	-1469.3	67.581	-78.144	-1372.5	41.137	-99.44	-1405.6	36.234	-56.007
191	1.9	-1283.9	1428.7	-280.71	-1341.4	1146.1	-267.09	-1150.1	1344.8	-260.85	-1122.4	1175.6	-255.18	-1209.4	1327.6	-448.93	-1220.1	1384.4	-83.535	-1323.1	1354.5	-140.21	-1151.9	904	-396.1	-1136	907.83	-146.03	-1309.6	915.71	-308.9	-1303.4	912.92	-231.2	-1226.5	975.27	-409.19	-1202.6	976.37	-125.82	-1110.6	676.45	-442.13	-1116.3	723.37	-440.3	-1153.6	698.59	-444.18	-1050.8	601.83	-477.83	-1021.5	470.33	-427.37	-1049.8	448.54	-316.12	-1204.5	674.13	-90.124	-1226.1	710.95	-92.692	-1186.1	714.29	-96.153	-1215.7	585.98	-43.672	-1236.7	430.95	-94.221	-1237.6	427.37	-213.89	-1030.6	390.88	-453.31	-998.49	376.04	-432.4	-1020.2	343.59	-456.15	-992.77	273.74	-508.28	-1059	54.089	-429.13	-1053.3	73.655	-518.61	-1317.4	311.8	-82.104	-1307.7	347.63	-77.54	-1280.6	324.36	-88.537	-1349.6	224.21	-45.077	-1473.3	99.957	-87.438	-1467.4	97.667	-180.12	-1114.1	46.369	-488.64	-1039.5	25.497	-438.13	-1036.4	47.035	-528.57	-933.57	47.052	-497.87	-948.64	34.532	-545.17	-1536.6	114.19	-125.97	-1470.7	61.853	-175.28	-1467.2	71.362	-78.694	-1371.5	41.924	-99.815	-1404.5	37.997	-56.469
